<svg width="50" height="50" viewBox="0 0 50 50" fill="none" xmlns="http://www.w3.org/2000/svg">
<path d="M35 6C35 3.243 32.757 1 30 1H20C17.243 1 15 3.243 15 6V9H1V26H3V49H47V26H49V9H35V6ZM17 6C17 4.346 18.346 3 20 3H30C31.654 3 33 4.346 33 6V9H17V6ZM5 42.09C7.507 42.513 9.486 44.493 9.91 47H5V42.09ZM40.09 47C40.513 44.493 42.493 42.514 45 42.09V47H40.09ZM45 40.069C41.388 40.522 38.523 43.388 38.069 47H11.931C11.477 43.388 8.612 40.523 5 40.069V26H19V32H24V34H26V32H31V26H45V40.069ZM24 28V30H21V26H29V30H26V28H24ZM47 24H31H19H3V11H47V24Z" fill="#4EEAF6"/>
</svg>
