<svg width="512" height="512" viewBox="0 0 512 512" fill="none" xmlns="http://www.w3.org/2000/svg">
<path d="M80 88H96V152H112V88H128V72H80V88Z" fill="#4EEAF6"/>
<path d="M272 88H288V152H304V88H320V72H272V88Z" fill="#4EEAF6"/>
<path d="M144 80V144C144 146.122 144.843 148.157 146.343 149.657C147.843 151.157 149.878 152 152 152H192V136H160V120H192V104H160V88H192V72H152C149.878 72 147.843 72.8429 146.343 74.3431C144.843 75.8434 144 77.8783 144 80Z" fill="#4EEAF6"/>
<path d="M208 96C208 102.365 210.529 108.47 215.029 112.971C219.53 117.471 225.635 120 232 120C234.122 120 236.157 120.843 237.657 122.343C239.157 123.843 240 125.878 240 128C240 130.122 239.157 132.157 237.657 133.657C236.157 135.157 234.122 136 232 136H208V152H232C238.365 152 244.47 149.471 248.971 144.971C253.471 140.47 256 134.365 256 128C256 121.635 253.471 115.53 248.971 111.029C244.47 106.529 238.365 104 232 104C229.878 104 227.843 103.157 226.343 101.657C224.843 100.157 224 98.1217 224 96C224 93.8783 224.843 91.8434 226.343 90.3431C227.843 88.8429 229.878 88 232 88H256V72H232C225.635 72 219.53 74.5286 215.029 79.0294C210.529 83.5303 208 89.6348 208 96V96Z" fill="#4EEAF6"/>
<path d="M56 184H344C346.122 184 348.157 183.157 349.657 181.657C351.157 180.157 352 178.122 352 176V48C352 45.8783 351.157 43.8434 349.657 42.3431C348.157 40.8429 346.122 40 344 40H56C53.8783 40 51.8434 40.8429 50.3431 42.3431C48.8429 43.8434 48 45.8783 48 48V176C48 178.122 48.8429 180.157 50.3431 181.657C51.8434 183.157 53.8783 184 56 184ZM64 56H336V168H64V56Z" fill="#4EEAF6"/>
<path d="M48 280H96C98.1217 280 100.157 279.157 101.657 277.657C103.157 276.156 104 274.122 104 272V227.28L125.68 205.68L114.32 194.32L92.72 216H48C45.8783 216 43.8434 216.843 42.3431 218.343C40.8429 219.843 40 221.878 40 224V272C40 274.122 40.8429 276.156 42.3431 277.657C43.8434 279.157 45.8783 280 48 280ZM88 264H67.28L88 243.28V264ZM76.72 232L56 252.72V232H76.72Z" fill="#4EEAF6"/>
<path d="M96 376H48C45.8783 376 43.8434 376.843 42.3431 378.343C40.8429 379.843 40 381.878 40 384V432C40 434.122 40.8429 436.157 42.3431 437.657C43.8434 439.157 45.8783 440 48 440H96C98.1217 440 100.157 439.157 101.657 437.657C103.157 436.157 104 434.122 104 432V384C104 381.878 103.157 379.843 101.657 378.343C100.157 376.843 98.1217 376 96 376ZM88 424H56V392H88V424Z" fill="#4EEAF6"/>
<path d="M106.32 282.32L92.72 296H48C45.8783 296 43.8434 296.843 42.3431 298.343C40.8429 299.843 40 301.878 40 304V352C40 354.122 40.8429 356.156 42.3431 357.657C43.8434 359.157 45.8783 360 48 360H96C98.1217 360 100.157 359.157 101.657 357.657C103.157 356.156 104 354.122 104 352V307.28L117.68 293.68L106.32 282.32ZM76.72 312L56 332.72V312H76.72ZM88 344H67.28L88 323.28V344Z" fill="#4EEAF6"/>
<path d="M120 224H352V240H120V224Z" fill="#4EEAF6"/>
<path d="M120 384H224V400H120V384Z" fill="#4EEAF6"/>
<path d="M120 416H352V432H120V416Z" fill="#4EEAF6"/>
<path d="M501.68 178.32L469.68 146.32C468.936 145.57 468.051 144.975 467.077 144.569C466.102 144.163 465.056 143.954 464 143.954C462.944 143.954 461.898 144.163 460.923 144.569C459.949 144.975 459.064 145.57 458.32 146.32L392 212.72V16C392 13.8783 391.157 11.8434 389.657 10.3431C388.157 8.84285 386.122 8 384 8H16C13.8783 8 11.8434 8.84285 10.3431 10.3431C8.84285 11.8434 8 13.8783 8 16V496C8 498.122 8.84285 500.157 10.3431 501.657C11.8434 503.157 13.8783 504 16 504H384C386.122 504 388.157 503.157 389.657 501.657C391.157 500.157 392 498.122 392 496V299.28L501.68 189.68C502.43 188.936 503.025 188.051 503.431 187.077C503.837 186.102 504.046 185.056 504.046 184C504.046 182.944 503.837 181.898 503.431 180.923C503.025 179.949 502.43 179.064 501.68 178.32V178.32ZM274.72 358L290 373.28L263.2 384.8L274.72 358ZM283.28 344L432 195.28L452.72 216L304 364.72L283.28 344ZM376 488H24V24H376V228.72L348.72 256H120V272H332.72L300.72 304H120V320H284.72L268.72 336H120V352H259.84L240.64 396.88C240.125 398.096 239.919 399.42 240.04 400.735C240.162 402.05 240.607 403.314 241.335 404.415C242.064 405.517 243.054 406.42 244.217 407.046C245.38 407.671 246.68 407.999 248 408C249.072 407.998 250.133 407.78 251.12 407.36L307.12 383.36C308.064 382.952 308.93 382.384 309.68 381.68L376 315.28V488ZM464 204.72L443.28 184L464 163.28L484.72 184L464 204.72Z" fill="#4EEAF6"/>
</svg>
