<svg width="512" height="512" viewBox="0 0 512 512" fill="none" xmlns="http://www.w3.org/2000/svg">
<path d="M386.925 142.541C390.614 140.659 392.08 136.142 390.197 132.452L353.746 60.9986C352.444 58.4516 349.723 56.7816 346.729 56.9196C344.015 57.0406 341.577 58.6576 340.385 60.9986L303.935 132.452C302.052 136.142 303.518 140.659 307.207 142.541C310.897 144.422 315.414 142.958 317.296 139.268L328.549 117.208H365.582L376.835 139.268C378.719 142.961 383.239 144.422 386.925 142.541V142.541ZM336.201 102.209L347.066 80.9106L357.931 102.209H336.201Z" fill="#4EEAF6"/>
<path d="M367.463 60.9235H374.326V67.7865C374.326 71.9285 377.683 75.2865 381.826 75.2865C385.969 75.2865 389.326 71.9285 389.326 67.7865V60.9235H396.188C400.331 60.9235 403.688 57.5655 403.688 53.4235C403.688 49.2815 400.331 45.9235 396.188 45.9235H389.326V39.0605C389.326 34.9185 385.969 31.5605 381.826 31.5605C377.683 31.5605 374.326 34.9185 374.326 39.0605V45.9235H367.463C363.32 45.9235 359.963 49.2815 359.963 53.4235C359.963 57.5655 363.321 60.9235 367.463 60.9235V60.9235Z" fill="#4EEAF6"/>
<path d="M178.15 175.476C169.721 167.046 156.077 167.043 147.646 175.475L139.885 183.235L139.835 183.185C131.405 174.755 117.762 174.753 109.331 183.185C100.902 191.612 100.897 205.258 109.33 213.689L124.633 228.992C133.063 237.422 146.707 237.423 155.138 228.992L178.15 205.98C186.559 197.569 186.559 183.885 178.15 175.476V175.476ZM167.542 195.373L144.53 218.385C141.964 220.953 137.806 220.953 135.24 218.385L119.936 203.082C117.369 200.514 117.368 196.361 119.937 193.791C122.499 191.228 126.653 191.218 129.227 193.791L134.581 199.145C137.51 202.074 142.259 202.074 145.187 199.145L158.251 186.082C160.816 183.516 164.975 183.514 167.541 186.082C170.104 188.643 170.104 192.811 167.542 195.373V195.373Z" fill="#4EEAF6"/>
<path d="M178.15 249.829C169.721 241.399 156.077 241.396 147.646 249.829L139.885 257.589L139.835 257.539C131.406 249.11 117.761 249.107 109.331 257.539C100.902 265.966 100.897 279.612 109.33 288.043L124.633 303.346C133.063 311.776 146.706 311.776 155.138 303.346L178.15 280.334C186.559 271.922 186.559 258.239 178.15 249.829V249.829ZM167.542 269.726L144.53 292.738C141.964 295.305 137.806 295.306 135.24 292.738L119.936 277.435C117.369 274.867 117.368 270.714 119.937 268.144C122.498 265.582 126.653 265.571 129.227 268.144L134.581 273.498C137.51 276.427 142.259 276.427 145.187 273.498L158.251 260.435C160.816 257.869 164.975 257.867 167.541 260.435C170.104 262.997 170.104 267.165 167.542 269.726Z" fill="#4EEAF6"/>
<path d="M178.15 324.184C169.721 315.754 156.077 315.751 147.646 324.183L139.885 331.943L139.835 331.893C131.405 323.463 117.762 323.461 109.331 331.893C100.902 340.32 100.897 353.966 109.33 362.397L124.633 377.7C133.063 386.13 146.707 386.131 155.138 377.7L178.15 354.688C186.559 346.277 186.559 332.594 178.15 324.184ZM167.542 344.081L144.53 367.093C141.964 369.661 137.806 369.661 135.24 367.093L119.936 351.79C117.369 349.222 117.368 345.069 119.937 342.499C122.499 339.936 126.653 339.926 129.227 342.499L134.581 347.853C137.51 350.782 142.259 350.782 145.187 347.853L158.251 334.79C160.816 332.224 164.975 332.222 167.541 334.79C170.104 337.352 170.104 341.519 167.542 344.081Z" fill="#4EEAF6"/>
<path d="M347.872 271.133C347.872 261.844 340.314 254.286 331.025 254.286H217.814C208.525 254.286 200.967 261.844 200.967 271.133V282.04C200.967 291.329 208.525 298.887 217.814 298.887H331.026C340.315 298.887 347.873 291.329 347.873 282.04V271.133H347.872ZM332.872 282.04C332.872 283.058 332.044 283.887 331.025 283.887H217.814C216.795 283.887 215.967 283.058 215.967 282.04V271.133C215.967 270.115 216.795 269.286 217.814 269.286H331.026C332.045 269.286 332.873 270.115 332.873 271.133V282.04H332.872Z" fill="#4EEAF6"/>
<path d="M347.872 345.487C347.872 336.199 340.314 328.641 331.025 328.641H217.814C208.525 328.641 200.967 336.199 200.967 345.487V356.394C200.967 365.683 208.525 373.241 217.814 373.241H331.026C340.315 373.241 347.873 365.683 347.873 356.394V345.487H347.872ZM332.872 356.393C332.872 357.411 332.044 358.24 331.025 358.24H217.814C216.795 358.24 215.967 357.411 215.967 356.393V345.487C215.967 344.469 216.795 343.641 217.814 343.641H331.026C332.045 343.641 332.873 344.469 332.873 345.487V356.393H332.872Z" fill="#4EEAF6"/>
<path d="M147.646 398.537L139.885 406.296L139.835 406.246C131.405 397.816 117.762 397.814 109.331 406.246C100.902 414.673 100.897 428.319 109.33 436.75L124.633 452.053C133.063 460.483 146.707 460.484 155.138 452.053L178.15 429.041C186.559 420.631 186.559 406.947 178.15 398.538C169.721 390.108 156.076 390.104 147.646 398.537V398.537ZM167.542 418.435L144.53 441.447C141.964 444.015 137.806 444.015 135.24 441.447L119.936 426.144C117.369 423.576 117.368 419.423 119.937 416.853C122.499 414.29 126.653 414.28 129.227 416.853L134.581 422.207C137.508 425.134 142.259 425.136 145.187 422.207L158.251 409.144C160.816 406.578 164.975 406.576 167.541 409.144C170.104 411.705 170.104 415.873 167.542 418.435Z" fill="#4EEAF6"/>
<path d="M331.026 432.594H291.078C286.935 432.594 283.578 435.952 283.578 440.094C283.578 444.236 286.935 447.594 291.078 447.594H331.026C340.315 447.594 347.873 440.036 347.873 430.747V419.841C347.873 410.552 340.315 402.994 331.026 402.994H217.814C208.525 402.994 200.967 410.552 200.967 419.841V430.747C200.967 440.036 208.525 447.594 217.814 447.594H256.078C260.221 447.594 263.578 444.236 263.578 440.094C263.578 435.952 260.221 432.594 256.078 432.594H217.814C216.795 432.594 215.967 431.765 215.967 430.747V419.841C215.967 418.823 216.795 417.994 217.814 417.994H331.026C332.045 417.994 332.873 418.823 332.873 419.841V430.747C332.872 431.766 332.044 432.594 331.026 432.594Z" fill="#4EEAF6"/>
<path d="M378.249 301.333C382.392 301.333 385.749 297.975 385.749 293.833V181.146C421.388 167.957 446.862 133.628 446.862 93.4593C446.862 41.9257 404.935 0 353.402 0C323.945 0 297.632 13.7029 280.489 35.0637H137.818C135.923 35.0637 133.968 35.8067 132.514 37.2607L67.334 102.441C65.884 103.89 65.138 105.833 65.138 107.744V489.803C65.138 502.042 75.0949 512 87.3338 512H363.552C375.791 512 385.749 502.042 385.749 489.803V328.832C385.749 324.69 382.392 321.332 378.249 321.332C374.106 321.332 370.749 324.69 370.749 328.832V489.803C370.749 493.771 367.52 497 363.552 497H87.3338C83.3659 497 80.1379 493.771 80.1379 489.803V115.244H123.122C135.36 115.244 145.317 105.287 145.317 93.0483V50.0636H270.609C264.161 62.3065 260.559 75.7994 260.019 89.8293C258.503 129.983 282.506 165.347 317.959 179.932H217.815C208.526 179.932 200.968 187.49 200.968 196.778V207.685C200.968 216.974 208.526 224.532 217.815 224.532H331.027C340.316 224.532 347.874 216.974 347.874 207.685V196.778C347.874 192.897 346.541 189.329 344.328 186.478C347.315 186.767 350.342 186.92 353.403 186.92C359.24 186.92 365.156 186.354 370.75 185.301V293.834C370.749 297.976 374.107 301.333 378.249 301.333V301.333ZM130.318 93.0483C130.318 97.0162 127.09 100.244 123.123 100.244H90.7448L130.318 60.6705V93.0483ZM332.873 207.685C332.873 208.703 332.045 209.532 331.026 209.532H217.815C216.796 209.532 215.968 208.703 215.968 207.685V196.778C215.968 195.76 216.796 194.931 217.815 194.931H331.027C332.046 194.931 332.874 195.76 332.874 196.778V207.685H332.873ZM353.403 171.92C310.14 171.92 274.943 136.723 274.943 93.4603C274.943 50.2676 310.076 15.0009 353.403 15.0009C396.666 15.0009 431.863 50.1976 431.863 93.4603C431.863 136.682 396.698 171.92 353.403 171.92Z" fill="#4EEAF6"/>
</svg>
